<?xml version="1.0" standalone="no"?>
<!DOCTYPE svg PUBLIC "-//W3C//DTD SVG 20010904//EN"
 "http://www.w3.org/TR/2001/REC-SVG-20010904/DTD/svg10.dtd">
<svg version="1.0" xmlns="http://www.w3.org/2000/svg"
 width="1280.000000pt" height="1190.000000pt" viewBox="0 0 1280.000000 1190.000000"
 preserveAspectRatio="xMidYMid meet">
<metadata>
Created by potrace 1.15, written by Peter Selinger 2001-2017
</metadata>
<g transform="translate(0.000000,1190.000000) scale(0.100000,-0.100000)"
fill="#000000" stroke="none">
<path d="M12483 11886 c-23 -7 -59 -24 -80 -37 -21 -13 -731 -577 -1578 -1254
-847 -676 -1805 -1441 -2129 -1699 l-588 -469 -92 24 c-58 15 -120 23 -171 24
-71 0 -87 -4 -145 -34 -256 -133 -1617 -551 -1794 -551 -70 0 -252 -113 -831
-515 -392 -271 -511 -351 -596 -399 -133 -74 -244 -231 -465 -661 -167 -326
-282 -592 -299 -691 -3 -23 -16 -55 -28 -72 -26 -36 -268 -261 -359 -334 -78
-63 -110 -105 -102 -132 9 -29 24 -44 17 -17 -4 15 -1 21 11 21 9 0 16 6 16
13 1 20 27 -48 44 -112 39 -152 123 -240 231 -241 34 0 42 -13 48 -80 4 -36 9
-74 12 -85 4 -15 -6 -28 -43 -54 -27 -19 -61 -56 -77 -84 -44 -73 -151 -175
-238 -227 -63 -37 -155 -122 -519 -477 -244 -237 -456 -446 -473 -463 l-30
-32 53 27 c53 26 55 26 90 9 19 -9 67 -30 106 -46 83 -34 347 -170 491 -253
204 -117 602 -394 683 -475 55 -55 35 -58 -188 -22 -132 22 -281 37 -442 47
-241 15 -454 32 -763 60 -372 35 -684 56 -890 61 -121 3 -240 7 -265 9 -60 4
-410 -12 -530 -25 -127 -14 -359 -55 -439 -77 -51 -15 -70 -26 -95 -56 -42
-52 -42 -104 -1 -147 72 -76 174 -112 580 -203 620 -141 986 -207 2420 -442
298 -49 467 -81 634 -121 57 -14 106 -23 108 -20 2 2 -56 18 -129 35 -73 17
-146 36 -163 41 -30 9 -30 10 5 5 19 -3 102 2 184 10 l149 15 111 -29 c61 -16
120 -32 131 -35 11 -4 4 1 -15 10 -19 9 -84 29 -145 44 -111 28 -160 38 -565
110 -226 41 -354 68 -1383 289 -893 193 -1388 288 -1626 312 -139 14 -139 18
2 64 199 64 495 91 912 82 319 -7 542 -22 1040 -73 193 -19 460 -46 595 -60
308 -31 656 -41 800 -25 121 14 204 44 233 83 18 24 19 32 8 67 -13 46 -77
116 -163 179 -206 152 -740 493 -1011 647 -76 43 -136 79 -134 81 2 2 144 68
317 148 l313 144 99 190 99 191 -41 24 -41 24 53 44 c96 81 92 78 85 43 l-6
-31 67 -7 c129 -12 187 -8 207 14 10 11 21 20 25 20 4 0 10 -60 13 -134 15
-308 78 -426 229 -426 70 0 135 21 206 66 150 96 273 256 517 671 115 196 178
283 206 283 11 0 14 -29 14 -143 1 -120 5 -157 27 -242 121 -459 447 -1002
669 -1116 29 -14 59 -19 121 -19 110 1 157 21 197 87 49 79 80 123 89 123 4 0
23 -31 42 -70 36 -74 88 -132 133 -149 76 -29 197 -4 264 54 61 52 87 120 87
230 0 127 -22 221 -131 545 -78 232 -97 299 -101 360 -6 98 2 106 107 102 121
-4 302 -30 429 -62 235 -59 398 -167 482 -319 107 -193 139 -221 252 -221 201
0 355 -61 859 -338 370 -203 559 -282 680 -282 55 0 502 54 877 106 615 84
965 112 1525 121 l397 6 0 23 c0 12 4 24 9 26 9 3 32 487 51 1053 18 546 11
1043 -16 1149 -7 29 -42 46 -94 46 -22 0 -100 16 -175 35 -333 85 -663 222
-800 332 -51 41 -64 59 -85 113 -21 58 -39 80 -155 196 -191 191 -445 400
-1230 1014 -415 324 -553 438 -675 557 -58 56 -115 110 -127 120 -22 18 -20
20 2019 1753 1122 954 2052 1750 2067 1769 56 74 23 174 -74 221 -57 28 -154
35 -212 16z m-8706 -10202 c-3 -3 -12 -4 -19 -1 -8 3 -5 6 6 6 11 1 17 -2 13
-5z m-344 -21 c-7 -2 -19 -2 -25 0 -7 3 -2 5 12 5 14 0 19 -2 13 -5z"/>
<path d="M4091 1606 c2 -2 15 -9 29 -15 24 -11 24 -11 6 3 -16 13 -49 24 -35
12z"/>
<path d="M4165 1560 c10 -11 20 -20 23 -20 3 0 -3 9 -13 20 -10 11 -20 20 -23
20 -3 0 3 -9 13 -20z"/>
<path d="M3865 1540 c27 -12 43 -12 25 0 -8 5 -22 9 -30 9 -10 0 -8 -3 5 -9z"/>
</g>
</svg>
