<svg width="34" height="24" viewBox="0 0 34 24" fill="none" xmlns="http://www.w3.org/2000/svg">
<path d="M21.9583 14H20.8392L20.4425 13.73C21.8308 12.59 22.6667 11.11 22.6667 9.5C22.6667 5.91 18.5442 3 13.4583 3C8.3725 3 4.25 5.91 4.25 9.5C4.25 13.09 8.3725 16 13.4583 16C15.7392 16 17.8358 15.41 19.4508 14.43L19.8333 14.71V15.5L26.9167 20.49L29.0275 19L21.9583 14ZM13.4583 14C9.93083 14 7.08333 11.99 7.08333 9.5C7.08333 7.01 9.93083 5 13.4583 5C16.9858 5 19.8333 7.01 19.8333 9.5C19.8333 11.99 16.9858 14 13.4583 14Z" fill="#323232"/>
</svg>
